<?xml version="1.0" encoding="UTF-8" standalone="no"?>
<!-- Created with Inkscape (http://www.inkscape.org/) -->

<svg
   width="165.51573mm"
   height="76.014442mm"
   viewBox="0 0 165.51573 76.014442"
   version="1.1"
   id="svg524"
   inkscape:version="1.2.2 (b0a8486541, 2022-12-01)"
   sodipodi:docname="swecha_logo.svg"
   inkscape:export-filename="swecha_logo.webp"
   inkscape:export-xdpi="96"
   inkscape:export-ydpi="96"
   xmlns:inkscape="http://www.inkscape.org/namespaces/inkscape"
   xmlns:sodipodi="http://sodipodi.sourceforge.net/DTD/sodipodi-0.dtd"
   xmlns="http://www.w3.org/2000/svg"
   xmlns:svg="http://www.w3.org/2000/svg">
  <sodipodi:namedview
     id="namedview526"
     pagecolor="#ffffff"
     bordercolor="#000000"
     borderopacity="0.25"
     inkscape:showpageshadow="2"
     inkscape:pageopacity="0.0"
     inkscape:pagecheckerboard="0"
     inkscape:deskcolor="#d1d1d1"
     inkscape:document-units="mm"
     showgrid="false"
     inkscape:zoom="1.8750861"
     inkscape:cx="312.78563"
     inkscape:cy="143.72673"
     inkscape:window-width="1920"
     inkscape:window-height="1014"
     inkscape:window-x="0"
     inkscape:window-y="29"
     inkscape:window-maximized="1"
     inkscape:current-layer="g4123" />
  <defs
     id="defs521" />
  <g
     inkscape:label="Layer 1"
     inkscape:groupmode="layer"
     id="layer1"
     transform="translate(-25.254941,-81.950094)">
    <g
       style="fill:#800000"
       id="g4123"
       transform="matrix(10.384638,0,0,9.9469718,-525.90593,-1801.2662)">
      <path
         style="fill:#ff0000;fill-opacity:1;stroke-width:0.0480076"
         d="m 60.995883,192.82386 c 0,-0.0756 0.882894,-0.97193 1.302645,-1.32254 0.426784,-0.35648 0.840945,-0.64317 0.929144,-0.64317 0.03399,0 0.166841,0.0717 0.295223,0.15929 0.423989,0.28932 0.3761,0.30172 1.043828,-0.27035 0.23271,-0.19937 0.494487,-0.39637 0.581728,-0.43777 0.215262,-0.10214 0.549214,-0.0946 0.964092,0.0218 0.190317,0.0534 0.602159,0.12519 0.915206,0.15952 l 0.569176,0.0624 -0.336054,0.10914 c -0.283517,0.0921 -0.484942,0.11405 -1.28845,0.14053 -1.090775,0.036 -1.010596,0.001 -1.291652,0.55933 -0.354221,0.70338 -0.539031,0.7755 -1.169519,0.45642 -0.208467,-0.1055 -0.428711,-0.19191 -0.489431,-0.19203 -0.153962,-3.6e-4 -0.359116,0.11374 -0.778603,0.43277 -0.478487,0.36391 -1.143475,0.81522 -1.20118,0.81522 -0.02538,0 -0.04615,-0.0228 -0.04615,-0.0506 z m -1.776281,-0.70759 c 0,-0.1437 0.230281,-0.42291 0.821467,-0.99603 0.6659,-0.64555 1.113197,-1.01993 1.263687,-1.05771 0.116326,-0.0292 0.290433,0.0468 0.510778,0.22289 0.187511,0.14987 0.324492,0.0857 0.840604,-0.39356 0.253485,-0.23541 0.522639,-0.45995 0.598119,-0.49898 0.191141,-0.0988 0.507082,-0.0885 0.887469,0.0289 0.177931,0.055 0.559485,0.11739 0.847897,0.13873 0.28841,0.0213 0.538744,0.0532 0.556293,0.0707 0.04849,0.0485 -0.07185,0.11032 -0.493393,0.25352 -0.362395,0.1231 -0.429151,0.13002 -1.183351,0.12272 -0.93505,-0.009 -0.869891,-0.0419 -1.121927,0.5648 -0.307562,0.7403 -0.511166,0.8223 -1.125074,0.45307 -0.196827,-0.11838 -0.394192,-0.21524 -0.438588,-0.21524 -0.160712,0 -0.580597,0.27409 -1.175859,0.76756 -0.792723,0.65716 -0.788122,0.65402 -0.788122,0.53857 z"
         id="path1431"
         inkscape:connector-curvature="0"
         sodipodi:nodetypes="ccsccccccccccccscccsccccccccccssccc" />
      <text
         xml:space="preserve"
         style="font-style:normal;font-weight:normal;font-size:1.09217px;line-height:1.25;font-family:sans-serif;letter-spacing:0px;word-spacing:0px;fill:#000000;fill-opacity:1;stroke:none;stroke-width:0.0819129"
         x="55.992596"
         y="196.95663"
         id="text4110"><tspan
           sodipodi:role="line"
           id="tspan4108"
           x="55.992596"
           y="196.95663"
           style="fill:#000000;stroke-width:0.0819129">ANDHRA PRADESH</tspan></text>
      <path
         sodipodi:nodetypes="cccscsccsccccscscssccsccccccccccccccccccccscssscccscccccccccsccccccccscscccccccccsccccccccccccccccccccccsccccccccsccccccccccccccscc"
         inkscape:connector-curvature="0"
         id="path4117"
         d="m 54.586874,195.86816 c -0.07921,-0.0425 -0.176428,-0.10537 -0.216034,-0.13969 -0.03961,-0.0343 -0.180028,-0.0883 -0.312049,-0.11997 -0.617761,-0.14817 -0.984156,-0.57735 -0.984156,-1.15281 0,-0.20462 0.02358,-0.26287 0.173613,-0.42894 0.137013,-0.15166 0.207624,-0.19217 0.334946,-0.19217 0.222649,0 0.287184,0.12171 0.356359,0.6721 0.06244,0.49675 0.140229,0.73163 0.297924,0.89949 0.09307,0.0991 0.145217,0.10867 0.590124,0.10867 0.848051,0 1.579467,-0.25789 1.994186,-0.70314 0.379685,-0.40763 0.423411,-0.70263 0.130546,-0.88073 -0.0838,-0.051 -0.445077,-0.16111 -0.802839,-0.24478 -0.728286,-0.17032 -1.015527,-0.28587 -1.156669,-0.4653 -0.230675,-0.29325 -0.180459,-0.59674 0.157941,-0.95455 0.444362,-0.46985 1.199639,-0.75501 2.004513,-0.75681 0.757342,-0.002 1.177342,0.21429 1.233697,0.63445 0.04919,0.36674 -0.226547,0.6252 -0.717615,0.67263 -0.187642,0.0181 -0.228036,0.008 -0.228036,-0.0561 0,-0.0594 0.04695,-0.0781 0.195723,-0.0781 0.152315,0 0.226846,-0.0311 0.336053,-0.14032 0.157786,-0.15779 0.168997,-0.22622 0.07422,-0.45304 -0.143209,-0.34274 -0.863175,-0.46641 -1.61239,-0.27695 -0.468525,0.11848 -0.735619,0.26352 -0.976721,0.5304 -0.214073,0.23695 -0.261468,0.39749 -0.162115,0.54912 0.112488,0.17168 0.368128,0.2691 1.097653,0.4183 0.716897,0.14662 1.015663,0.27571 1.12429,0.48577 0.169435,0.32765 8.6e-5,0.87976 -0.373324,1.21711 -0.228381,0.20633 -0.758978,0.46741 -1.167625,0.57454 -0.158425,0.0415 -0.514659,0.089 -0.791631,0.10541 -0.446591,0.0265 -0.486065,0.0358 -0.348775,0.082 0.08515,0.0287 0.160536,0.0737 0.167533,0.10013 0.02125,0.0802 -0.265939,0.0756 -0.419347,-0.007 z m -0.716007,-0.67737 c -0.125549,-0.19273 -0.243335,-0.56636 -0.295123,-0.93615 -0.03541,-0.25285 -0.118774,-0.29578 -0.205357,-0.10576 -0.134979,0.29625 -0.0016,0.74279 0.306812,1.02706 0.264462,0.24377 0.346911,0.2501 0.193668,0.0149 z m 6.75598,0.22361 c -0.372452,-0.10895 -0.455474,-0.50791 -0.198883,-0.95572 0.186652,-0.32576 0.66943,-0.81601 0.939003,-0.95354 0.356203,-0.18172 0.7811,-0.0926 0.7811,0.16379 0,0.12897 -0.132649,0.33774 -0.317976,0.50046 -0.232161,0.20384 -0.813115,0.48132 -1.007743,0.48132 -0.168924,0 -0.210523,0.0617 -0.210523,0.31254 0,0.18566 0.10427,0.31155 0.258044,0.31155 0.275725,0 0.630465,-0.25735 1.326206,-0.96212 0.394084,-0.3992 0.783805,-0.74962 0.898229,-0.80766 0.416753,-0.21137 0.827489,-0.0777 0.762335,0.24803 -0.0488,0.24401 -0.157169,0.36957 -0.318966,0.36957 -0.18244,0 -0.231986,-0.11473 -0.127877,-0.29613 0.09073,-0.15809 0.08169,-0.16232 -0.123933,-0.058 -0.274632,0.13941 -0.571147,0.41346 -0.754817,0.69763 -0.223342,0.34556 -0.278572,0.58927 -0.162583,0.71744 0.296069,0.32715 1.231357,-0.32728 1.774376,-1.24155 0.799643,-1.57648 2.036328,-2.24114 0.808309,-0.60867 -0.518262,0.68783 -0.706728,0.97852 -0.586696,0.90492 0.03519,-0.0216 0.258406,-0.1762 0.496044,-0.34362 0.605772,-0.42677 0.906566,-0.56876 1.05836,-0.49959 0.0648,0.0295 0.117825,0.0819 0.117825,0.11631 0,0.0344 -0.142781,0.25634 -0.317292,0.4931 -0.467278,0.63397 -0.640044,1.01532 -0.499369,1.10226 0.09993,0.0618 0.408651,-0.15029 0.7616,-0.52311 1.060316,-1.12003 1.329685,-1.32412 1.769664,-1.34076 0.174988,-0.007 0.231598,0.0134 0.3095,0.10963 0.05244,0.0648 0.129331,0.12272 0.170875,0.12881 0.04154,0.006 0.1061,0.0417 0.143456,0.079 0.05856,0.0586 0.02134,0.13948 -0.269908,0.58691 -0.476664,0.73227 -0.542865,0.98384 -0.258896,0.98384 0.105474,0 0.237496,-0.10827 0.649609,-0.53276 0.322361,-0.33204 0.517232,-0.50106 0.517232,-0.4486 0,0.15177 -0.541108,0.78681 -0.883343,1.03669 -0.338416,0.24709 -0.683802,0.1429 -0.743487,-0.22429 l -0.0304,-0.18703 -0.27357,0.24775 c -0.150464,0.13626 -0.338992,0.28158 -0.418953,0.32292 -0.13095,0.0677 -0.162826,0.0679 -0.32112,0.002 -0.221008,-0.0923 -0.302129,-0.19811 -0.304071,-0.39646 -0.0016,-0.17253 -0.05158,-0.19754 -0.151672,-0.076 -0.03624,0.044 -0.170443,0.16281 -0.298236,0.26404 -0.406954,0.32238 -0.7038,0.21188 -0.7038,-0.26198 0,-0.21642 0.03464,-0.31411 0.234078,-0.66011 0.128742,-0.22335 0.22583,-0.41522 0.215752,-0.42637 -0.01007,-0.0112 -0.165525,0.0803 -0.34544,0.20322 -0.349144,0.23856 -0.817469,0.70803 -1.145452,1.14826 -0.158411,0.21262 -0.221905,0.2642 -0.300048,0.24377 -0.118301,-0.0309 -0.12745,-0.15673 -0.02571,-0.35348 0.07304,-0.14125 0.07213,-0.14099 -0.180028,0.0508 -0.359822,0.27363 -0.713361,0.39959 -0.945849,0.33699 -0.231006,-0.0622 -0.350808,-0.19643 -0.384763,-0.43109 l -0.027,-0.18661 -0.285046,0.21595 c -0.491406,0.3723 -0.781864,0.48007 -1.068148,0.39632 z m 6.182756,-0.35621 c 0.294229,-0.18943 1.2914,-1.47632 1.191695,-1.53795 -0.106111,-0.0656 -0.380733,0.0371 -0.701354,0.26229 -0.681175,0.47837 -1.136958,1.16731 -0.917465,1.3868 0.06998,0.07 0.19721,0.0369 0.427124,-0.11114 z m -5.53626,-0.72845 c 0.53957,-0.273 0.88979,-0.88435 0.38476,-0.67165 -0.179303,0.0755 -0.611831,0.45096 -0.761221,0.66076 l -0.09956,0.13983 h 0.110597 c 0.06083,0 0.225271,-0.058 0.365429,-0.12894 z m -3.582967,0.94129 c -0.127018,-0.11833 -0.128318,-0.11248 0.191153,-0.86002 0.376872,-0.88186 0.617332,-1.18196 0.800391,-0.9989 0.09257,0.0926 0.07314,0.15131 -0.235506,0.712 -0.161213,0.29285 -0.282636,0.54294 -0.269829,0.55574 0.01281,0.0128 0.0961,-0.0688 0.185098,-0.18135 0.452853,-0.57272 0.977749,-1.09599 1.099398,-1.09599 0.01976,0 0.08642,0.0409 0.148119,0.0908 l 0.112186,0.0909 -0.283861,0.41362 c -0.250704,0.36531 -0.286219,0.44623 -0.304047,0.69271 -0.02534,0.35037 0.06064,0.46474 0.31801,0.42298 0.467617,-0.0759 0.91053,-1.0133 0.759484,-1.60743 -0.03594,-0.14135 -0.03022,-0.15849 0.04801,-0.14388 0.04884,0.009 0.127935,0.0921 0.175762,0.18447 0.193592,0.37376 -0.0174,1.01716 -0.468879,1.42978 -0.467547,0.42731 -0.910423,0.44034 -1.103966,0.0325 -0.06265,-0.13203 -0.0796,-0.25959 -0.06498,-0.48912 l 0.01977,-0.31051 -0.136177,0.16069 c -0.0749,0.0884 -0.279451,0.34973 -0.454563,0.58076 -0.175113,0.23104 -0.343154,0.42007 -0.373425,0.42007 -0.03027,0 -0.103236,-0.0449 -0.162145,-0.0998 z"
         style="fill:#0000ff;fill-opacity:1;stroke-width:0.0480076" />
    </g>
  </g>
</svg>
